<svg xmlns="http://www.w3.org/2000/svg" viewBox="0 0 512 512">
  <defs>
    <linearGradient id="bg" x1="0%" y1="0%" x2="100%" y2="100%">
      <stop offset="0%" style="stop-color:#1e3a8a"/>
      <stop offset="100%" style="stop-color:#2563eb"/>
    </linearGradient>
  </defs>
  <rect width="512" height="512" rx="112" fill="url(#bg)"/>
  <!-- Graduation cap -->
  <path d="M256 140 L380 200 L256 260 L132 200 Z" fill="white" opacity="0.95"/>
  <path d="M310 225 L310 295 Q256 320 202 295 L202 225 L256 255 Z" fill="#f59e0b"/>
  <!-- Heart -->
  <path d="M256 360 Q220 330 220 310 Q220 290 240 290 Q252 290 256 300 Q260 290 272 290 Q292 290 292 310 Q292 330 256 360Z" fill="#f59e0b"/>
  <!-- Cap string -->
  <line x1="380" y1="200" x2="380" y2="260" stroke="white" stroke-width="8" stroke-linecap="round"/>
  <circle cx="380" cy="265" r="8" fill="#f59e0b"/>
</svg>
